<svg id="Capa_1" enable-background="new 0 0 512 512" height="512" viewBox="0 0 512 512" width="512" xmlns="http://www.w3.org/2000/svg"><g><g><g><g><circle cx="419.646" cy="168.116" fill="#f1d0a5" r="50.508"/></g><g><path d="m444.768 124.306c4.253 7.401 6.698 15.973 6.698 25.122 0 27.895-22.613 50.508-50.508 50.508-9.149 0-17.721-2.445-25.122-6.698 8.715 15.165 25.064 25.386 43.81 25.386 27.895 0 50.508-22.613 50.508-50.508 0-18.746-10.22-35.095-25.386-43.81z" fill="#f1b986"/></g><g><path d="m334.793 259.03v100.006h169.707v-100.006c0-22.316-18.091-40.407-40.406-40.407h-88.894c-22.317.001-40.407 18.092-40.407 40.407z" fill="#4073c8"/></g><g><path d="m464.094 218.624h-24.244c22.316 0 40.407 18.091 40.407 40.407v100.006h24.243v-100.007c0-22.315-18.091-40.406-40.406-40.406z" fill="#30579d"/></g></g><g><g><circle cx="92.354" cy="168.116" fill="#f1d0a5" r="50.508"/></g><g><path d="m117.476 124.306c4.253 7.401 6.698 15.973 6.698 25.122 0 27.895-22.613 50.508-50.508 50.508-9.149 0-17.721-2.445-25.122-6.698 8.715 15.165 25.064 25.386 43.81 25.386 27.895 0 50.508-22.613 50.508-50.508 0-18.746-10.221-35.095-25.386-43.81z" fill="#f1b986"/></g><g><path d="m7.5 259.03v100.006h169.707v-100.006c0-22.316-18.091-40.407-40.407-40.407h-88.893c-22.316.001-40.407 18.092-40.407 40.407z" fill="#4073c8"/></g><g><path d="m136.801 218.624h-24.244c22.316 0 40.407 18.091 40.407 40.407v100.006h24.244v-100.007c-.001-22.315-18.091-40.406-40.407-40.406z" fill="#30579d"/></g></g><g><g><path d="m330.752 140.841h-16.163v-32.325h16.163c8.926 0 16.163 7.236 16.163 16.163 0 8.926-7.237 16.162-16.163 16.162z" fill="#f1d0a5"/></g><g><path d="m282.264 230.746 45.582 12.218c30.911 8.285 52.404 36.298 52.404 68.3v47.772h-248.5v-47.772c0-32.002 21.493-60.015 52.404-68.3l45.582-12.218z" fill="#f6e266"/></g><g><path d="m333.518 244.741c.169 2.055.264 4.123.264 6.208 0 37.432-36.264 89.48-77.783 108.087h124.25v-47.773c.001-30.004-18.894-56.503-46.731-66.522z" fill="#f1d333"/></g><g><path d="m229.736 230.746-30.931 8.291 6.413 23.159c3.917 14.143 21.13 19.524 32.404 10.129l18.378-15.315v-26.264z" fill="#ecf4ff"/></g><g><path d="m282.264 230.746 30.931 8.291-6.413 23.159c-3.917 14.143-21.13 19.524-32.404 10.129l-18.378-15.315v-26.264z" fill="#ecf4ff"/></g><g><path d="m256 257.01c-14.505 0-26.264-11.759-26.264-26.264v-32.325h52.528v32.325c0 14.505-11.759 26.264-26.264 26.264z" fill="#f1d0a5"/></g><g><path d="m229.736 219.044c8.198 2.994 17.043 4.63 26.264 4.63s18.067-1.637 26.264-4.63v-20.624h-52.528z" fill="#f1b986"/></g><g><path d="m197.411 88.313v58.589c0 32.358 26.231 58.589 58.589 58.589s58.589-26.231 58.589-58.589v-58.589z" fill="#f1d0a5"/></g><g><path d="m181.248 140.841h16.163v-32.325h-16.163c-8.926 0-16.163 7.236-16.163 16.163 0 8.926 7.237 16.162 16.163 16.162z" fill="#f1d0a5"/></g><g><path d="m294.386 88.313v78.793c0 10.998-3.037 21.285-8.308 30.078 17.077-10.238 28.511-28.922 28.511-50.281v-58.59z" fill="#f1b986"/></g><g><path d="m181.248 81.242v27.274h74.752c11.158 0 20.203-9.045 20.203-20.203 0 11.158 9.045 20.203 20.203 20.203h32.325v-27.274c0-40.726-33.015-73.742-73.742-73.742-40.726 0-73.741 33.015-73.741 73.742z" fill="#e49542"/></g></g></g><g><g><circle cx="256" cy="417.387" fill="#ecf4ff" r="87.113"/></g><g><g><path d="m245.524 454.327c-4.515 0-9.03-1.722-12.476-5.167l-17.643-17.643c-6.89-6.89-6.89-18.061 0-24.952 6.891-6.89 18.061-6.89 24.952 0l5.167 5.168 26.118-26.119c6.891-6.89 18.061-6.89 24.952 0 6.89 6.89 6.89 18.061 0 24.952l-38.594 38.594c-3.445 3.445-7.96 5.167-12.476 5.167z" fill="#c8ea73"/></g></g></g><g><path d="m504.5 284.89c4.143 0 7.5-3.358 7.5-7.5v-18.36c0-26.417-21.492-47.91-47.91-47.91h-5.557c11.736-10.622 19.122-25.966 19.122-43.004 0-31.986-26.022-58.008-58.008-58.008s-58.008 26.022-58.008 58.008c0 17.038 7.386 32.382 19.122 43.004h-5.56c-17.96 0-34.154 9.982-42.356 25.484-1.009-.315-2.026-.613-3.054-.888l-40.025-10.72v-21.309c18.952-11.312 31.782-31.834 32.289-55.345h8.699c13.048 0 23.663-10.615 23.663-23.663 0-11.161-7.77-20.536-18.184-23.015v-20.422c-.002-44.797-36.446-81.242-81.243-81.242s-81.242 36.445-81.242 81.242v21c-9.382 3.144-16.163 12.011-16.163 22.437 0 13.047 10.615 23.663 23.663 23.663h8.699c.507 23.51 13.336 44.033 32.289 55.345v21.309l-40.027 10.72c-1.027.276-2.044.573-3.052.888-8.202-15.501-24.396-25.484-42.356-25.484h-5.56c11.736-10.622 19.122-25.966 19.122-43.004 0-31.986-26.022-58.008-58.008-58.008s-58.008 26.022-58.008 58.008c0 17.038 7.386 32.382 19.122 43.004h-5.559c-26.418 0-47.91 21.492-47.91 47.91v18.36c0 4.142 3.357 7.5 7.5 7.5s7.5-3.358 7.5-7.5v-18.36c0-18.146 14.764-32.91 32.91-32.91h88.89c11.891 0 22.635 6.382 28.445 16.373-24.797 13.444-40.995 39.651-40.995 68.767v40.28h-109.25v-39.15c0-4.142-3.357-7.5-7.5-7.5s-7.5 3.358-7.5 7.5v46.65c0 4.142 3.357 7.5 7.5 7.5h168.753c-6.129 9.564-10.615 20.328-12.973 31.948-.823 4.06 1.8 8.018 5.859 8.842 4.057.822 8.019-1.799 8.842-5.858 7.49-36.911 40.302-63.702 78.02-63.702 43.897 0 79.61 35.717 79.61 79.62 0 43.897-35.713 79.61-79.61 79.61-37.719 0-70.531-26.786-78.02-63.692-.823-4.06-4.785-6.681-8.842-5.858-4.06.824-6.683 4.782-5.859 8.842 8.902 43.868 47.896 75.708 92.72 75.708 52.168 0 94.61-42.442 94.61-94.61 0-18.703-5.455-36.155-14.856-50.85h168.746c4.143 0 7.5-3.358 7.5-7.5v-46.65c0-4.142-3.357-7.5-7.5-7.5s-7.5 3.358-7.5 7.5v39.15h-109.25v-40.28c0-29.115-16.197-55.322-40.995-68.767 5.81-9.991 16.554-16.373 28.445-16.373h88.89c18.146 0 32.91 14.763 32.91 32.91v18.36c0 4.142 3.357 7.5 7.5 7.5zm-455.154-116.774c0-23.714 19.293-43.008 43.008-43.008s43.008 19.293 43.008 43.008c0 23.663-19.21 42.921-42.854 43.004h-.308c-23.644-.084-42.854-19.341-42.854-43.004zm190.736 92.397-7.26 6.05c-3.378 2.815-7.722 3.679-11.923 2.366-4.197-1.312-7.278-4.496-8.452-8.735l-4.396-15.871 15.531-4.16c2.555 8.783 8.584 16.099 16.5 20.35zm48.336-20.349 15.531 4.159-4.396 15.871c-1.173 4.239-4.254 7.422-8.451 8.734-4.201 1.312-8.545.449-11.923-2.366l-7.26-6.05c7.915-4.25 13.944-11.566 16.499-20.348zm50.997-115.485c0 4.776-3.887 8.663-8.663 8.663h-8.662v-17.325h6.642 2.021c4.775-.001 8.662 3.885 8.662 8.662zm-150.667-43.437c0-36.526 29.716-66.242 66.242-66.242 36.525 0 66.241 29.716 66.241 66.242v19.774h-24.825c-7.005 0-12.703-5.699-12.703-12.703 0-4.142-3.357-7.5-7.5-7.5s-7.5 3.358-7.5 7.5c0 7.004-5.698 12.703-12.703 12.703h-67.252zm-16.163 43.437c0-4.776 3.887-8.663 8.663-8.663h8.662v17.325h-8.662c-4.776 0-8.663-3.886-8.663-8.662zm32.325 22.223v-30.886h51.09c7.959 0 15.146-3.374 20.203-8.767 5.058 5.393 12.244 8.767 20.203 8.767h10.684v30.886c0 28.171-22.919 51.089-51.09 51.089s-51.09-22.918-51.09-51.089zm51.09 66.09c6.518 0 12.812-.964 18.765-2.73v20.484c0 10.347-8.418 18.764-18.765 18.764s-18.765-8.417-18.765-18.764v-20.484c5.953 1.766 12.247 2.73 18.765 2.73zm116.75 98.268v40.28h-48.881c-17.206-17.732-41.271-28.77-67.869-28.77-26.236 0-50.465 10.922-67.842 28.77h-48.908v-40.28c0-28.552 19.263-53.659 46.841-61.055l7.47-2.001 4.429 15.993c2.522 9.107 9.413 16.229 18.433 19.048 2.733.854 5.53 1.272 8.305 1.272 6.38 0 12.637-2.215 17.697-6.432l13.575-11.312 13.575 11.313c5.062 4.217 11.316 6.432 17.697 6.432 2.774 0 5.571-.418 8.305-1.272 9.02-2.82 15.91-9.941 18.432-19.048l4.43-15.994 7.469 2c27.579 7.397 46.842 32.504 46.842 61.056zm3.889-143.144c0-23.714 19.293-43.008 43.008-43.008s43.008 19.293 43.008 43.008c0 23.663-19.21 42.921-42.854 43.004h-.308c-23.644-.084-42.854-19.341-42.854-43.004z"/><path d="m245.524 461.827c6.716 0 13.029-2.615 17.779-7.364l38.595-38.595c9.803-9.803 9.803-25.755-.001-35.559-9.804-9.803-25.755-9.801-35.559 0l-20.814 20.816c-9.815-9.666-25.664-9.621-35.423.136-9.802 9.803-9.802 25.754 0 35.558l17.645 17.644c4.749 4.749 11.063 7.364 17.778 7.364zm-24.816-49.958c1.979-1.978 4.576-2.966 7.174-2.966s5.195.989 7.172 2.965l5.167 5.168c1.406 1.407 3.314 2.197 5.304 2.197s3.896-.79 5.304-2.197l26.117-26.119c3.955-3.954 10.391-3.957 14.346 0 3.955 3.955 3.955 10.39 0 14.345l-38.594 38.594c-1.916 1.916-4.464 2.971-7.173 2.971s-5.257-1.055-7.172-2.97l-17.644-17.643c-3.955-3.955-3.955-10.391-.001-14.345z"/></g></g></svg>